<mxfile host="app.diagrams.net" modified="2023-03-29T21:50:32.838Z" agent="Mozilla/5.0 (X11; Linux x86_64; rv:102.0) Gecko/20100101 Firefox/102.0" etag="vJ6kDOmctBnkjo7DXuCg" version="21.1.2" type="device">
  <diagram name="Page-1" id="Png8Uro68UNK63sbw38d">
    <mxGraphModel dx="3354" dy="1899" grid="1" gridSize="10" guides="1" tooltips="1" connect="1" arrows="1" fold="1" page="1" pageScale="1" pageWidth="5000" pageHeight="5000" math="0" shadow="0">
      <root>
        <mxCell id="0" />
        <mxCell id="1" parent="0" />
        <mxCell id="56g09RqjX_nw5jvTrVRn-1" value="" style="rounded=0;whiteSpace=wrap;html=1;" vertex="1" parent="1">
          <mxGeometry x="1170" y="330" width="810" height="780" as="geometry" />
        </mxCell>
        <mxCell id="56g09RqjX_nw5jvTrVRn-2" value="" style="rounded=0;whiteSpace=wrap;html=1;" vertex="1" parent="1">
          <mxGeometry x="1440" y="530" width="240" height="280" as="geometry" />
        </mxCell>
        <mxCell id="56g09RqjX_nw5jvTrVRn-3" value="Sign In" style="text;strokeColor=none;align=center;fillColor=none;html=1;verticalAlign=middle;whiteSpace=wrap;rounded=0;" vertex="1" parent="1">
          <mxGeometry x="1530" y="550" width="60" height="30" as="geometry" />
        </mxCell>
        <mxCell id="56g09RqjX_nw5jvTrVRn-4" value="" style="rounded=0;whiteSpace=wrap;html=1;" vertex="1" parent="1">
          <mxGeometry x="1500" y="620" width="120" height="60" as="geometry" />
        </mxCell>
        <mxCell id="56g09RqjX_nw5jvTrVRn-5" value="Username" style="text;strokeColor=none;align=center;fillColor=none;html=1;verticalAlign=middle;whiteSpace=wrap;rounded=0;" vertex="1" parent="1">
          <mxGeometry x="1530" y="635" width="60" height="30" as="geometry" />
        </mxCell>
        <mxCell id="56g09RqjX_nw5jvTrVRn-6" value="" style="rounded=0;whiteSpace=wrap;html=1;" vertex="1" parent="1">
          <mxGeometry x="1500" y="710" width="120" height="60" as="geometry" />
        </mxCell>
        <mxCell id="56g09RqjX_nw5jvTrVRn-7" value="password" style="text;strokeColor=none;align=center;fillColor=none;html=1;verticalAlign=middle;whiteSpace=wrap;rounded=0;" vertex="1" parent="1">
          <mxGeometry x="1530" y="725" width="60" height="30" as="geometry" />
        </mxCell>
        <mxCell id="56g09RqjX_nw5jvTrVRn-8" value="" style="rounded=0;whiteSpace=wrap;html=1;" vertex="1" parent="1">
          <mxGeometry x="1380" y="860" width="160" height="90" as="geometry" />
        </mxCell>
        <mxCell id="56g09RqjX_nw5jvTrVRn-9" value="Not a user? Register!" style="text;strokeColor=none;align=center;fillColor=none;html=1;verticalAlign=middle;whiteSpace=wrap;rounded=0;" vertex="1" parent="1">
          <mxGeometry x="1430" y="890" width="60" height="30" as="geometry" />
        </mxCell>
        <mxCell id="56g09RqjX_nw5jvTrVRn-10" value="" style="rounded=0;whiteSpace=wrap;html=1;" vertex="1" parent="1">
          <mxGeometry x="1620" y="860" width="160" height="90" as="geometry" />
        </mxCell>
        <mxCell id="56g09RqjX_nw5jvTrVRn-11" value="Register as a business?" style="text;strokeColor=none;align=center;fillColor=none;html=1;verticalAlign=middle;whiteSpace=wrap;rounded=0;" vertex="1" parent="1">
          <mxGeometry x="1670" y="890" width="60" height="30" as="geometry" />
        </mxCell>
        <mxCell id="56g09RqjX_nw5jvTrVRn-12" value="" style="rounded=0;whiteSpace=wrap;html=1;" vertex="1" parent="1">
          <mxGeometry x="2270" y="325" width="920" height="790" as="geometry" />
        </mxCell>
        <mxCell id="56g09RqjX_nw5jvTrVRn-13" value="User Home page" style="text;strokeColor=none;align=center;fillColor=none;html=1;verticalAlign=middle;whiteSpace=wrap;rounded=0;" vertex="1" parent="1">
          <mxGeometry x="2630" y="270" width="120" height="30" as="geometry" />
        </mxCell>
        <mxCell id="56g09RqjX_nw5jvTrVRn-14" value="" style="rounded=0;whiteSpace=wrap;html=1;" vertex="1" parent="1">
          <mxGeometry x="2320" y="350" width="800" height="60" as="geometry" />
        </mxCell>
        <mxCell id="56g09RqjX_nw5jvTrVRn-16" value="Balance:$9999" style="text;strokeColor=none;align=center;fillColor=none;html=1;verticalAlign=middle;whiteSpace=wrap;rounded=0;" vertex="1" parent="1">
          <mxGeometry x="2970" y="365" width="90" height="30" as="geometry" />
        </mxCell>
        <mxCell id="56g09RqjX_nw5jvTrVRn-17" value="" style="rounded=0;whiteSpace=wrap;html=1;" vertex="1" parent="1">
          <mxGeometry x="2320" y="350" width="120" height="60" as="geometry" />
        </mxCell>
        <mxCell id="56g09RqjX_nw5jvTrVRn-18" value="Home" style="text;strokeColor=none;align=center;fillColor=none;html=1;verticalAlign=middle;whiteSpace=wrap;rounded=0;" vertex="1" parent="1">
          <mxGeometry x="2350" y="365" width="60" height="30" as="geometry" />
        </mxCell>
        <mxCell id="56g09RqjX_nw5jvTrVRn-19" value="" style="rounded=0;whiteSpace=wrap;html=1;" vertex="1" parent="1">
          <mxGeometry x="2320" y="440" width="120" height="60" as="geometry" />
        </mxCell>
        <mxCell id="56g09RqjX_nw5jvTrVRn-20" value="Log out" style="text;strokeColor=none;align=center;fillColor=none;html=1;verticalAlign=middle;whiteSpace=wrap;rounded=0;" vertex="1" parent="1">
          <mxGeometry x="2350" y="450" width="60" height="30" as="geometry" />
        </mxCell>
        <mxCell id="56g09RqjX_nw5jvTrVRn-22" value="" style="rounded=0;whiteSpace=wrap;html=1;" vertex="1" parent="1">
          <mxGeometry x="2625" y="440" width="120" height="60" as="geometry" />
        </mxCell>
        <mxCell id="56g09RqjX_nw5jvTrVRn-23" value="Pay / Request" style="text;strokeColor=none;align=center;fillColor=none;html=1;verticalAlign=middle;whiteSpace=wrap;rounded=0;" vertex="1" parent="1">
          <mxGeometry x="2620" y="440" width="130" height="70" as="geometry" />
        </mxCell>
        <mxCell id="56g09RqjX_nw5jvTrVRn-30" value="" style="rounded=0;whiteSpace=wrap;html=1;" vertex="1" parent="1">
          <mxGeometry x="2430" y="860" width="610" height="220" as="geometry" />
        </mxCell>
        <mxCell id="56g09RqjX_nw5jvTrVRn-31" value="" style="rounded=0;whiteSpace=wrap;html=1;" vertex="1" parent="1">
          <mxGeometry x="2460" y="870" width="540" height="30" as="geometry" />
        </mxCell>
        <mxCell id="56g09RqjX_nw5jvTrVRn-32" value="Transactions" style="text;strokeColor=none;align=center;fillColor=none;html=1;verticalAlign=middle;whiteSpace=wrap;rounded=0;" vertex="1" parent="1">
          <mxGeometry x="2600" y="870" width="270" height="30" as="geometry" />
        </mxCell>
        <mxCell id="56g09RqjX_nw5jvTrVRn-33" value="" style="rounded=0;whiteSpace=wrap;html=1;" vertex="1" parent="1">
          <mxGeometry x="2460" y="920" width="540" height="160" as="geometry" />
        </mxCell>
        <mxCell id="56g09RqjX_nw5jvTrVRn-34" value="- $500 IN" style="text;strokeColor=none;align=center;fillColor=none;html=1;verticalAlign=middle;whiteSpace=wrap;rounded=0;" vertex="1" parent="1">
          <mxGeometry x="2490" y="940" width="60" height="30" as="geometry" />
        </mxCell>
        <mxCell id="56g09RqjX_nw5jvTrVRn-40" value="" style="rounded=0;whiteSpace=wrap;html=1;" vertex="1" parent="1">
          <mxGeometry x="3270" y="325" width="880" height="795" as="geometry" />
        </mxCell>
        <mxCell id="56g09RqjX_nw5jvTrVRn-41" value="Wallet Page" style="text;strokeColor=none;align=center;fillColor=none;html=1;verticalAlign=middle;whiteSpace=wrap;rounded=0;" vertex="1" parent="1">
          <mxGeometry x="3650" y="270" width="110" height="30" as="geometry" />
        </mxCell>
        <mxCell id="56g09RqjX_nw5jvTrVRn-42" value="" style="rounded=0;whiteSpace=wrap;html=1;" vertex="1" parent="1">
          <mxGeometry x="3480" y="437.5" width="250" height="180" as="geometry" />
        </mxCell>
        <mxCell id="56g09RqjX_nw5jvTrVRn-43" value="Balance: $99" style="text;strokeColor=none;align=center;fillColor=none;html=1;verticalAlign=middle;whiteSpace=wrap;rounded=0;" vertex="1" parent="1">
          <mxGeometry x="3500" y="467.5" width="170" height="80" as="geometry" />
        </mxCell>
        <mxCell id="56g09RqjX_nw5jvTrVRn-44" value="" style="rounded=0;whiteSpace=wrap;html=1;" vertex="1" parent="1">
          <mxGeometry x="3340" y="422.5" width="120" height="60" as="geometry" />
        </mxCell>
        <mxCell id="56g09RqjX_nw5jvTrVRn-45" value="Add cash to RevWallet" style="text;strokeColor=none;align=center;fillColor=none;html=1;verticalAlign=middle;whiteSpace=wrap;rounded=0;" vertex="1" parent="1">
          <mxGeometry x="3370" y="437.5" width="60" height="30" as="geometry" />
        </mxCell>
        <mxCell id="56g09RqjX_nw5jvTrVRn-46" value="" style="rounded=0;whiteSpace=wrap;html=1;" vertex="1" parent="1">
          <mxGeometry x="3390" y="640" width="350" height="350" as="geometry" />
        </mxCell>
        <mxCell id="56g09RqjX_nw5jvTrVRn-47" value="" style="rounded=0;whiteSpace=wrap;html=1;" vertex="1" parent="1">
          <mxGeometry x="3760" y="420" width="350" height="350" as="geometry" />
        </mxCell>
        <mxCell id="56g09RqjX_nw5jvTrVRn-48" value="" style="rounded=0;whiteSpace=wrap;html=1;" vertex="1" parent="1">
          <mxGeometry x="3420" y="660" width="280" height="60" as="geometry" />
        </mxCell>
        <mxCell id="56g09RqjX_nw5jvTrVRn-49" value="" style="rounded=0;whiteSpace=wrap;html=1;" vertex="1" parent="1">
          <mxGeometry x="3790" y="437.5" width="280" height="60" as="geometry" />
        </mxCell>
        <mxCell id="56g09RqjX_nw5jvTrVRn-50" value="Banks" style="text;strokeColor=none;align=center;fillColor=none;html=1;verticalAlign=middle;whiteSpace=wrap;rounded=0;" vertex="1" parent="1">
          <mxGeometry x="3470" y="650" width="170" height="80" as="geometry" />
        </mxCell>
        <mxCell id="56g09RqjX_nw5jvTrVRn-51" value="Cards" style="text;strokeColor=none;align=center;fillColor=none;html=1;verticalAlign=middle;whiteSpace=wrap;rounded=0;" vertex="1" parent="1">
          <mxGeometry x="3850" y="430" width="170" height="80" as="geometry" />
        </mxCell>
        <mxCell id="56g09RqjX_nw5jvTrVRn-52" value="" style="rounded=0;whiteSpace=wrap;html=1;" vertex="1" parent="1">
          <mxGeometry x="3435" y="760" width="250" height="180" as="geometry" />
        </mxCell>
        <mxCell id="56g09RqjX_nw5jvTrVRn-53" value="" style="rounded=0;whiteSpace=wrap;html=1;" vertex="1" parent="1">
          <mxGeometry x="3800" y="540" width="250" height="180" as="geometry" />
        </mxCell>
        <mxCell id="56g09RqjX_nw5jvTrVRn-54" value="**** - ***- 3456" style="text;strokeColor=none;align=center;fillColor=none;html=1;verticalAlign=middle;whiteSpace=wrap;rounded=0;" vertex="1" parent="1">
          <mxGeometry x="3820" y="560" width="110" height="30" as="geometry" />
        </mxCell>
        <mxCell id="56g09RqjX_nw5jvTrVRn-55" value="US bank - ****" style="text;strokeColor=none;align=center;fillColor=none;html=1;verticalAlign=middle;whiteSpace=wrap;rounded=0;" vertex="1" parent="1">
          <mxGeometry x="3450" y="780" width="110" height="30" as="geometry" />
        </mxCell>
        <mxCell id="56g09RqjX_nw5jvTrVRn-56" value="" style="rounded=0;whiteSpace=wrap;html=1;" vertex="1" parent="1">
          <mxGeometry x="3500" y="940" width="110" height="40" as="geometry" />
        </mxCell>
        <mxCell id="56g09RqjX_nw5jvTrVRn-57" value="Add Bank" style="text;strokeColor=none;align=center;fillColor=none;html=1;verticalAlign=middle;whiteSpace=wrap;rounded=0;" vertex="1" parent="1">
          <mxGeometry x="3525" y="945" width="60" height="30" as="geometry" />
        </mxCell>
        <mxCell id="56g09RqjX_nw5jvTrVRn-58" value="" style="rounded=0;whiteSpace=wrap;html=1;" vertex="1" parent="1">
          <mxGeometry x="3870" y="725" width="110" height="40" as="geometry" />
        </mxCell>
        <mxCell id="56g09RqjX_nw5jvTrVRn-59" value="Add Card" style="text;strokeColor=none;align=center;fillColor=none;html=1;verticalAlign=middle;whiteSpace=wrap;rounded=0;" vertex="1" parent="1">
          <mxGeometry x="3895" y="730" width="60" height="30" as="geometry" />
        </mxCell>
        <mxCell id="56g09RqjX_nw5jvTrVRn-60" value="" style="rounded=0;whiteSpace=wrap;html=1;" vertex="1" parent="1">
          <mxGeometry x="2100" y="1300" width="440" height="620" as="geometry" />
        </mxCell>
        <mxCell id="56g09RqjX_nw5jvTrVRn-61" value="" style="rounded=0;whiteSpace=wrap;html=1;" vertex="1" parent="1">
          <mxGeometry x="2180" y="1400" width="250" height="60" as="geometry" />
        </mxCell>
        <mxCell id="56g09RqjX_nw5jvTrVRn-62" value="Username/Phone search" style="text;strokeColor=none;align=center;fillColor=none;html=1;verticalAlign=middle;whiteSpace=wrap;rounded=0;" vertex="1" parent="1">
          <mxGeometry x="2190" y="1415" width="180" height="30" as="geometry" />
        </mxCell>
        <mxCell id="56g09RqjX_nw5jvTrVRn-63" value="" style="rounded=0;whiteSpace=wrap;html=1;" vertex="1" parent="1">
          <mxGeometry x="2180" y="1530" width="250" height="60" as="geometry" />
        </mxCell>
        <mxCell id="56g09RqjX_nw5jvTrVRn-64" value="Request amount" style="text;strokeColor=none;align=center;fillColor=none;html=1;verticalAlign=middle;whiteSpace=wrap;rounded=0;" vertex="1" parent="1">
          <mxGeometry x="2230" y="1545" width="140" height="30" as="geometry" />
        </mxCell>
        <mxCell id="56g09RqjX_nw5jvTrVRn-65" value="Pay request page" style="text;strokeColor=none;align=center;fillColor=none;html=1;verticalAlign=middle;whiteSpace=wrap;rounded=0;" vertex="1" parent="1">
          <mxGeometry x="2260" y="1240" width="140" height="30" as="geometry" />
        </mxCell>
        <mxCell id="56g09RqjX_nw5jvTrVRn-66" value="" style="rounded=0;whiteSpace=wrap;html=1;" vertex="1" parent="1">
          <mxGeometry x="2170" y="1730" width="120" height="60" as="geometry" />
        </mxCell>
        <mxCell id="56g09RqjX_nw5jvTrVRn-67" value="" style="rounded=0;whiteSpace=wrap;html=1;" vertex="1" parent="1">
          <mxGeometry x="2370" y="1730" width="120" height="60" as="geometry" />
        </mxCell>
        <mxCell id="56g09RqjX_nw5jvTrVRn-68" value="Pay" style="text;strokeColor=none;align=center;fillColor=none;html=1;verticalAlign=middle;whiteSpace=wrap;rounded=0;" vertex="1" parent="1">
          <mxGeometry x="2200" y="1745" width="60" height="30" as="geometry" />
        </mxCell>
        <mxCell id="56g09RqjX_nw5jvTrVRn-69" value="Request" style="text;strokeColor=none;align=center;fillColor=none;html=1;verticalAlign=middle;whiteSpace=wrap;rounded=0;" vertex="1" parent="1">
          <mxGeometry x="2400" y="1740" width="60" height="30" as="geometry" />
        </mxCell>
        <mxCell id="56g09RqjX_nw5jvTrVRn-70" value="" style="rounded=0;whiteSpace=wrap;html=1;" vertex="1" parent="1">
          <mxGeometry x="2690" y="1290" width="520" height="640" as="geometry" />
        </mxCell>
        <mxCell id="56g09RqjX_nw5jvTrVRn-71" value="Settings/User details" style="text;strokeColor=none;align=center;fillColor=none;html=1;verticalAlign=middle;whiteSpace=wrap;rounded=0;" vertex="1" parent="1">
          <mxGeometry x="2870" y="1230" width="150" height="30" as="geometry" />
        </mxCell>
        <mxCell id="56g09RqjX_nw5jvTrVRn-72" value="" style="rounded=0;whiteSpace=wrap;html=1;" vertex="1" parent="1">
          <mxGeometry x="2770" y="1420" width="320" height="300" as="geometry" />
        </mxCell>
        <mxCell id="56g09RqjX_nw5jvTrVRn-73" value="User details form" style="text;strokeColor=none;align=center;fillColor=none;html=1;verticalAlign=middle;whiteSpace=wrap;rounded=0;" vertex="1" parent="1">
          <mxGeometry x="2860" y="1510" width="100" height="70" as="geometry" />
        </mxCell>
        <mxCell id="56g09RqjX_nw5jvTrVRn-74" value="" style="rounded=0;whiteSpace=wrap;html=1;" vertex="1" parent="1">
          <mxGeometry x="2800" y="1770" width="120" height="60" as="geometry" />
        </mxCell>
        <mxCell id="56g09RqjX_nw5jvTrVRn-75" value="Edit" style="text;strokeColor=none;align=center;fillColor=none;html=1;verticalAlign=middle;whiteSpace=wrap;rounded=0;" vertex="1" parent="1">
          <mxGeometry x="2830" y="1785" width="60" height="30" as="geometry" />
        </mxCell>
        <mxCell id="56g09RqjX_nw5jvTrVRn-77" value="" style="rounded=0;whiteSpace=wrap;html=1;" vertex="1" parent="1">
          <mxGeometry x="4240" y="320" width="830" height="800" as="geometry" />
        </mxCell>
        <mxCell id="56g09RqjX_nw5jvTrVRn-78" value="Business Page" style="text;strokeColor=none;align=center;fillColor=none;html=1;verticalAlign=middle;whiteSpace=wrap;rounded=0;" vertex="1" parent="1">
          <mxGeometry x="4520" y="270" width="100" height="30" as="geometry" />
        </mxCell>
        <mxCell id="56g09RqjX_nw5jvTrVRn-79" value="" style="rounded=0;whiteSpace=wrap;html=1;" vertex="1" parent="1">
          <mxGeometry x="4280" y="580" width="180" height="70" as="geometry" />
        </mxCell>
        <mxCell id="56g09RqjX_nw5jvTrVRn-80" value="Apply for loan" style="text;strokeColor=none;align=center;fillColor=none;html=1;verticalAlign=middle;whiteSpace=wrap;rounded=0;" vertex="1" parent="1">
          <mxGeometry x="4340" y="602.5" width="60" height="30" as="geometry" />
        </mxCell>
        <mxCell id="56g09RqjX_nw5jvTrVRn-81" value="" style="rounded=0;whiteSpace=wrap;html=1;" vertex="1" parent="1">
          <mxGeometry x="4240" y="365" width="800" height="60" as="geometry" />
        </mxCell>
        <mxCell id="56g09RqjX_nw5jvTrVRn-82" value="Balance:$9999" style="text;strokeColor=none;align=center;fillColor=none;html=1;verticalAlign=middle;whiteSpace=wrap;rounded=0;" vertex="1" parent="1">
          <mxGeometry x="4890" y="380" width="90" height="30" as="geometry" />
        </mxCell>
        <mxCell id="56g09RqjX_nw5jvTrVRn-83" value="" style="rounded=0;whiteSpace=wrap;html=1;" vertex="1" parent="1">
          <mxGeometry x="4240" y="365" width="120" height="60" as="geometry" />
        </mxCell>
        <mxCell id="56g09RqjX_nw5jvTrVRn-84" value="Home" style="text;strokeColor=none;align=center;fillColor=none;html=1;verticalAlign=middle;whiteSpace=wrap;rounded=0;" vertex="1" parent="1">
          <mxGeometry x="4270" y="380" width="60" height="30" as="geometry" />
        </mxCell>
        <mxCell id="56g09RqjX_nw5jvTrVRn-85" value="" style="rounded=0;whiteSpace=wrap;html=1;" vertex="1" parent="1">
          <mxGeometry x="4240" y="455" width="120" height="60" as="geometry" />
        </mxCell>
        <mxCell id="56g09RqjX_nw5jvTrVRn-86" value="Log out" style="text;strokeColor=none;align=center;fillColor=none;html=1;verticalAlign=middle;whiteSpace=wrap;rounded=0;" vertex="1" parent="1">
          <mxGeometry x="4270" y="465" width="60" height="30" as="geometry" />
        </mxCell>
        <mxCell id="56g09RqjX_nw5jvTrVRn-88" value="" style="rounded=0;whiteSpace=wrap;html=1;" vertex="1" parent="1">
          <mxGeometry x="4350" y="875" width="610" height="220" as="geometry" />
        </mxCell>
        <mxCell id="56g09RqjX_nw5jvTrVRn-89" value="" style="rounded=0;whiteSpace=wrap;html=1;" vertex="1" parent="1">
          <mxGeometry x="4380" y="885" width="540" height="30" as="geometry" />
        </mxCell>
        <mxCell id="56g09RqjX_nw5jvTrVRn-90" value="Transactions" style="text;strokeColor=none;align=center;fillColor=none;html=1;verticalAlign=middle;whiteSpace=wrap;rounded=0;" vertex="1" parent="1">
          <mxGeometry x="4520" y="885" width="270" height="30" as="geometry" />
        </mxCell>
        <mxCell id="56g09RqjX_nw5jvTrVRn-91" value="" style="rounded=0;whiteSpace=wrap;html=1;" vertex="1" parent="1">
          <mxGeometry x="4380" y="935" width="540" height="160" as="geometry" />
        </mxCell>
        <mxCell id="56g09RqjX_nw5jvTrVRn-92" value="- $500 IN" style="text;strokeColor=none;align=center;fillColor=none;html=1;verticalAlign=middle;whiteSpace=wrap;rounded=0;" vertex="1" parent="1">
          <mxGeometry x="4410" y="955" width="60" height="30" as="geometry" />
        </mxCell>
        <mxCell id="56g09RqjX_nw5jvTrVRn-93" value="" style="rounded=0;whiteSpace=wrap;html=1;" vertex="1" parent="1">
          <mxGeometry x="4700" y="580" width="170" height="70" as="geometry" />
        </mxCell>
        <mxCell id="56g09RqjX_nw5jvTrVRn-94" value="Accept customer payments" style="text;strokeColor=none;align=center;fillColor=none;html=1;verticalAlign=middle;whiteSpace=wrap;rounded=0;" vertex="1" parent="1">
          <mxGeometry x="4755" y="602.5" width="60" height="30" as="geometry" />
        </mxCell>
        <mxCell id="56g09RqjX_nw5jvTrVRn-95" value="" style="rounded=0;whiteSpace=wrap;html=1;" vertex="1" parent="1">
          <mxGeometry x="4660" y="455" width="120" height="60" as="geometry" />
        </mxCell>
        <mxCell id="56g09RqjX_nw5jvTrVRn-96" value="Pay / Request" style="text;strokeColor=none;align=center;fillColor=none;html=1;verticalAlign=middle;whiteSpace=wrap;rounded=0;" vertex="1" parent="1">
          <mxGeometry x="4655" y="450" width="130" height="70" as="geometry" />
        </mxCell>
        <mxCell id="56g09RqjX_nw5jvTrVRn-97" value="" style="rounded=0;whiteSpace=wrap;html=1;" vertex="1" parent="1">
          <mxGeometry x="4270" y="1160" width="360" height="430" as="geometry" />
        </mxCell>
        <mxCell id="56g09RqjX_nw5jvTrVRn-99" value="" style="rounded=0;whiteSpace=wrap;html=1;" vertex="1" parent="1">
          <mxGeometry x="4310" y="1225" width="270" height="245" as="geometry" />
        </mxCell>
        <mxCell id="56g09RqjX_nw5jvTrVRn-100" value="Business loan info" style="text;strokeColor=none;align=center;fillColor=none;html=1;verticalAlign=middle;whiteSpace=wrap;rounded=0;" vertex="1" parent="1">
          <mxGeometry x="4360" y="1270" width="60" height="30" as="geometry" />
        </mxCell>
      </root>
    </mxGraphModel>
  </diagram>
</mxfile>
